<?xml version="1.0" standalone="no"?><!DOCTYPE svg PUBLIC "-//W3C//DTD SVG 1.1//EN" "http://www.w3.org/Graphics/SVG/1.1/DTD/svg11.dtd"><svg xmlns:xlink="http://www.w3.org/1999/xlink" version="1.1" style="font-family:open sans;font-size:12px;" xmlns="http://www.w3.org/2000/svg" width="1040" height="410"><desc>Created with Highcharts 4.1.5</desc><defs><clipPath id="highcharts-63"><rect x="0" y="0" width="823" height="197"></rect></clipPath></defs><rect x="0" y="0" width="1040" height="410" strokeWidth="0" fill="#FFFFFF" class=" highcharts-background"></rect><g class="highcharts-grid" ></g><g class="highcharts-grid" ></g><g class="highcharts-grid" ></g><g class="highcharts-grid" ><path fill="none" d="M 102 333.5 L 925 333.5" stroke="#D8D8D8" stroke-width="1"  opacity="1"></path><path fill="none" d="M 102 235.5 L 925 235.5" stroke="#D8D8D8" stroke-width="1"  opacity="1"></path><path fill="none" d="M 102 135.5 L 925 135.5" stroke="#D8D8D8" stroke-width="1"  opacity="1"></path></g><g class="highcharts-axis" ><path fill="none" d="M 170.5 333 L 170.5 343" stroke="#C0D0E0" stroke-width="1" opacity="1"></path><path fill="none" d="M 238.5 333 L 238.5 343" stroke="#C0D0E0" stroke-width="1" opacity="1"></path><path fill="none" d="M 307.5 333 L 307.5 343" stroke="#C0D0E0" stroke-width="1" opacity="1"></path><path fill="none" d="M 375.5 333 L 375.5 343" stroke="#C0D0E0" stroke-width="1" opacity="1"></path><path fill="none" d="M 444.5 333 L 444.5 343" stroke="#C0D0E0" stroke-width="1" opacity="1"></path><path fill="none" d="M 513.5 333 L 513.5 343" stroke="#C0D0E0" stroke-width="1" opacity="1"></path><path fill="none" d="M 581.5 333 L 581.5 343" stroke="#C0D0E0" stroke-width="1" opacity="1"></path><path fill="none" d="M 650.5 333 L 650.5 343" stroke="#C0D0E0" stroke-width="1" opacity="1"></path><path fill="none" d="M 718.5 333 L 718.5 343" stroke="#C0D0E0" stroke-width="1" opacity="1"></path><path fill="none" d="M 787.5 333 L 787.5 343" stroke="#C0D0E0" stroke-width="1" opacity="1"></path><path fill="none" d="M 855.5 333 L 855.5 343" stroke="#C0D0E0" stroke-width="1" opacity="1"></path><path fill="none" d="M 924.5 333 L 924.5 343" stroke="#C0D0E0" stroke-width="1" opacity="1"></path><path fill="none" d="M 101.5 333 L 101.5 343" stroke="#C0D0E0" stroke-width="1" opacity="1"></path><path fill="none" d="M 102 333.5 L 925 333.5" stroke="#C0D0E0" stroke-width="1"  visibility="visible"></path></g><g class="highcharts-axis" ><path fill="none" d="M 170.5 136 L 170.5 126" stroke="#C0D0E0" stroke-width="1" opacity="1"></path><path fill="none" d="M 238.5 136 L 238.5 126" stroke="#C0D0E0" stroke-width="1" opacity="1"></path><path fill="none" d="M 307.5 136 L 307.5 126" stroke="#C0D0E0" stroke-width="1" opacity="1"></path><path fill="none" d="M 375.5 136 L 375.5 126" stroke="#C0D0E0" stroke-width="1" opacity="1"></path><path fill="none" d="M 444.5 136 L 444.5 126" stroke="#C0D0E0" stroke-width="1" opacity="1"></path><path fill="none" d="M 513.5 136 L 513.5 126" stroke="#C0D0E0" stroke-width="1" opacity="1"></path><path fill="none" d="M 581.5 136 L 581.5 126" stroke="#C0D0E0" stroke-width="1" opacity="1"></path><path fill="none" d="M 650.5 136 L 650.5 126" stroke="#C0D0E0" stroke-width="1" opacity="1"></path><path fill="none" d="M 718.5 136 L 718.5 126" stroke="#C0D0E0" stroke-width="1" opacity="1"></path><path fill="none" d="M 787.5 136 L 787.5 126" stroke="#C0D0E0" stroke-width="1" opacity="1"></path><path fill="none" d="M 855.5 136 L 855.5 126" stroke="#C0D0E0" stroke-width="1" opacity="1"></path><path fill="none" d="M 924.5 136 L 924.5 126" stroke="#C0D0E0" stroke-width="1" opacity="1"></path><path fill="none" d="M 101.5 136 L 101.5 126" stroke="#C0D0E0" stroke-width="1" opacity="1"></path><path fill="none" d="M 102 135.5 L 925 135.5" stroke="#C0D0E0" stroke-width="1"  visibility="visible"></path></g><g class="highcharts-axis" ><text x="1013.5625"  text-anchor="middle" transform="translate(0,0) rotate(90 1013.5625 234.5)" class=" highcharts-yaxis-title" style="color:#000000;fill:#000000;" visibility="visible" y="234.5"><tspan>Kentucky marriages</tspan></text></g><g class="highcharts-axis" ><text x="26.640625"  text-anchor="middle" transform="translate(0,0) rotate(270 26.640625 234.5)" class=" highcharts-yaxis-title" style="color:#ba0f27;fill:#ba0f27;" visibility="visible" y="234.5"><tspan>Fishing boat deaths</tspan></text></g><g class="highcharts-series-group" ><g class="highcharts-series" visibility="visible"  transform="translate(102,136) scale(1 1)" clip-path="url(#highcharts-63)"><path fill="none" d="M 34.291666666666664 4.924999999999983 C 34.291666666666664 4.924999999999983 75.44166666666666 40.384999999999955 102.875 59.099999999999966 C 130.30833333333334 77.81499999999997 144.025 98.5 171.45833333333331 98.5 C 198.89166666666665 98.5 212.6083333333333 98.5 240.04166666666666 98.5 C 267.475 98.5 281.19166666666666 93.57500000000002 308.625 93.57500000000002 C 336.0583333333333 93.57500000000002 349.775 104.40999999999997 377.2083333333333 108.34999999999997 C 404.6416666666667 112.28999999999996 418.3583333333333 109.33500000000004 445.7916666666667 113.27500000000003 C 473.225 117.21500000000003 486.9416666666667 119.18499999999997 514.375 128.04999999999998 C 541.8083333333333 136.91499999999996 555.525 157.60000000000002 582.9583333333333 157.60000000000002 C 610.3916666666667 157.60000000000002 624.1083333333333 152.67499999999998 651.5416666666666 152.67499999999998 C 678.975 152.67499999999998 692.6916666666666 162.52500000000003 720.1249999999999 167.45000000000002 C 747.5583333333332 172.37500000000003 788.7083333333333 177.29999999999998 788.7083333333333 177.29999999999998" stroke="#000000" stroke-width="2"  stroke-linejoin="round" stroke-linecap="round"></path></g><g class="highcharts-markers" visibility="visible"  transform="translate(102,136) scale(1 1)" clip-path="none"><path fill="#000000" d="M 788 173.29999999999998 C 793.328 173.29999999999998 793.328 181.29999999999998 788 181.29999999999998 C 782.672 181.29999999999998 782.672 173.29999999999998 788 173.29999999999998 Z"></path><path fill="#000000" d="M 720 163.45000000000002 C 725.328 163.45000000000002 725.328 171.45000000000002 720 171.45000000000002 C 714.672 171.45000000000002 714.672 163.45000000000002 720 163.45000000000002 Z"></path><path fill="#000000" d="M 651 148.67499999999998 C 656.328 148.67499999999998 656.328 156.67499999999998 651 156.67499999999998 C 645.672 156.67499999999998 645.672 148.67499999999998 651 148.67499999999998 Z"></path><path fill="#000000" d="M 582 153.60000000000002 C 587.328 153.60000000000002 587.328 161.60000000000002 582 161.60000000000002 C 576.672 161.60000000000002 576.672 153.60000000000002 582 153.60000000000002 Z"></path><path fill="#000000" d="M 514 124.04999999999998 C 519.328 124.04999999999998 519.328 132.04999999999998 514 132.04999999999998 C 508.672 132.04999999999998 508.672 124.04999999999998 514 124.04999999999998 Z"></path><path fill="#000000" d="M 445 109.27500000000003 C 450.328 109.27500000000003 450.328 117.27500000000003 445 117.27500000000003 C 439.672 117.27500000000003 439.672 109.27500000000003 445 109.27500000000003 Z"></path><path fill="#000000" d="M 377 104.34999999999997 C 382.328 104.34999999999997 382.328 112.34999999999997 377 112.34999999999997 C 371.672 112.34999999999997 371.672 104.34999999999997 377 104.34999999999997 Z"></path><path fill="#000000" d="M 308 89.57500000000002 C 313.328 89.57500000000002 313.328 97.57500000000002 308 97.57500000000002 C 302.672 97.57500000000002 302.672 89.57500000000002 308 89.57500000000002 Z"></path><path fill="#000000" d="M 240 94.5 C 245.328 94.5 245.328 102.5 240 102.5 C 234.672 102.5 234.672 94.5 240 94.5 Z"></path><path fill="#000000" d="M 171 94.5 C 176.328 94.5 176.328 102.5 171 102.5 C 165.672 102.5 165.672 94.5 171 94.5 Z"></path><path fill="#000000" d="M 102 55.099999999999966 C 107.328 55.099999999999966 107.328 63.099999999999966 102 63.099999999999966 C 96.672 63.099999999999966 96.672 55.099999999999966 102 55.099999999999966 Z"></path><path fill="#000000" d="M 34 0.924999999999983 C 39.328 0.924999999999983 39.328 8.924999999999983 34 8.924999999999983 C 28.672 8.924999999999983 28.672 0.924999999999983 34 0.924999999999983 Z"></path></g><g class="highcharts-series" visibility="visible"  transform="translate(102,136) scale(1 1)" clip-path="url(#highcharts-63)"><path fill="none" d="M 34.291666666666664 9.849999999999994 C 34.291666666666664 9.849999999999994 75.44166666666666 19.700000000000006 102.875 39.400000000000006 C 130.30833333333334 59.10000000000001 144.025 108.35000000000001 171.45833333333331 108.35000000000001 C 198.89166666666665 108.35000000000001 212.6083333333333 90.62000000000002 240.04166666666666 78.80000000000001 C 267.475 66.98000000000002 281.19166666666666 49.25 308.625 49.25 C 336.0583333333333 49.25 349.775 98.5 377.2083333333333 98.5 C 404.6416666666667 98.5 418.3583333333333 88.65 445.7916666666667 88.65 C 473.225 88.65 486.9416666666667 110.32000000000001 514.375 128.05 C 541.8083333333333 145.78 555.525 177.3 582.9583333333333 177.3 C 610.3916666666667 177.3 624.1083333333333 147.75 651.5416666666666 147.75 C 678.975 147.75 692.6916666666666 187.15 720.1249999999999 187.15 C 747.5583333333332 187.15 788.7083333333333 187.15 788.7083333333333 187.15" stroke="#ba0f27" stroke-width="2"  stroke-linejoin="round" stroke-linecap="round"></path></g><g class="highcharts-markers" visibility="visible"  transform="translate(102,136) scale(1 1)" clip-path="none"><path fill="#ba0f27" d="M 788 183.15 L 792 187.15 788 191.15 784 187.15 Z"></path><path fill="#ba0f27" d="M 720 183.15 L 724 187.15 720 191.15 716 187.15 Z"></path><path fill="#ba0f27" d="M 651 143.75 L 655 147.75 651 151.75 647 147.75 Z"></path><path fill="#ba0f27" d="M 582 173.3 L 586 177.3 582 181.3 578 177.3 Z"></path><path fill="#ba0f27" d="M 514 124.05000000000001 L 518 128.05 514 132.05 510 128.05 Z"></path><path fill="#ba0f27" d="M 445 84.65 L 449 88.65 445 92.65 441 88.65 Z"></path><path fill="#ba0f27" d="M 377 94.5 L 381 98.5 377 102.5 373 98.5 Z"></path><path fill="#ba0f27" d="M 308 45.25 L 312 49.25 308 53.25 304 49.25 Z"></path><path fill="#ba0f27" d="M 240 74.80000000000001 L 244 78.80000000000001 240 82.80000000000001 236 78.80000000000001 Z"></path><path fill="#ba0f27" d="M 171 104.35000000000001 L 175 108.35000000000001 171 112.35000000000001 167 108.35000000000001 Z"></path><path fill="#ba0f27" d="M 102 35.400000000000006 L 106 39.400000000000006 102 43.400000000000006 98 39.400000000000006 Z"></path><path fill="#ba0f27" d="M 34 5.849999999999994 L 38 9.849999999999994 34 13.849999999999994 30 9.849999999999994 Z"></path></g></g><text x="520" text-anchor="middle" class="highcharts-title"  style="color:#777;font-size:18px;fill:#777;width:976px;" y="24"><tspan style="fill:#ba0f27;font-size:24px;font-weight:bold;font-family: 'lora'">People who drowned after falling out of a fishing boat</tspan><tspan style="font-family: 'lora'" x="520" dy="21"> correlates with </tspan><tspan style="fill:#000000;font-size:24px;font-weight:bold;font-family: 'lora'" x="520" dy="29">Marriage rate in Kentucky</tspan></text><g class="highcharts-legend"  transform="translate(367,368)"><g ><g><g class="highcharts-legend-item"  transform="translate(8,3)"><path fill="none" d="M 0 11 L 16 11" stroke="#000000" stroke-width="2"></path><path fill="#000000" d="M 8 7 C 13.328 7 13.328 15 8 15 C 2.6719999999999997 15 2.6719999999999997 7 8 7 Z"></path><text x="21" style="color:#333333;font-size:12px;font-weight:bold;cursor:pointer;fill:#333333;" text-anchor="start"  y="15"><tspan>Kentucky marriages</tspan></text></g><g class="highcharts-legend-item"  transform="translate(164.40625,3)"><path fill="none" d="M 0 11 L 16 11" stroke="#ba0f27" stroke-width="2"></path><path fill="#ba0f27" d="M 8 7 L 12 11 8 15 4 11 Z"></path><text x="21" y="15" style="color:#333333;font-size:12px;font-weight:bold;cursor:pointer;fill:#333333;" text-anchor="start" ><tspan>Fishing boat deaths</tspan></text></g></g></g></g><g class="highcharts-axis-labels highcharts-xaxis-labels" ><text x="136.29166666666666" style="color:#000000;cursor:default;font-size:11px;fill:#000000;width:68.58333333333333;text-overflow:ellipsis;" text-anchor="middle" transform="translate(0,0)" y="352" opacity="1"><tspan>1999</tspan></text><text x="204.875" style="color:#000000;cursor:default;font-size:11px;fill:#000000;width:68.58333333333333;text-overflow:ellipsis;" text-anchor="middle" transform="translate(0,0)" y="352" opacity="1"><tspan>2000</tspan></text><text x="273.4583333333333" style="color:#000000;cursor:default;font-size:11px;fill:#000000;width:68.58333333333333;text-overflow:ellipsis;" text-anchor="middle" transform="translate(0,0)" y="352" opacity="1"><tspan>2001</tspan></text><text x="342.04166666666663" style="color:#000000;cursor:default;font-size:11px;fill:#000000;width:68.58333333333333;text-overflow:ellipsis;" text-anchor="middle" transform="translate(0,0)" y="352" opacity="1"><tspan>2002</tspan></text><text x="410.625" style="color:#000000;cursor:default;font-size:11px;fill:#000000;width:68.58333333333333;text-overflow:ellipsis;" text-anchor="middle" transform="translate(0,0)" y="352" opacity="1"><tspan>2003</tspan></text><text x="479.2083333333333" style="color:#000000;cursor:default;font-size:11px;fill:#000000;width:68.58333333333333;text-overflow:ellipsis;" text-anchor="middle" transform="translate(0,0)" y="352" opacity="1"><tspan>2004</tspan></text><text x="547.7916666666666" style="color:#000000;cursor:default;font-size:11px;fill:#000000;width:68.58333333333333;text-overflow:ellipsis;" text-anchor="middle" transform="translate(0,0)" y="352" opacity="1"><tspan>2005</tspan></text><text x="616.375" style="color:#000000;cursor:default;font-size:11px;fill:#000000;width:68.58333333333333;text-overflow:ellipsis;" text-anchor="middle" transform="translate(0,0)" y="352" opacity="1"><tspan>2006</tspan></text><text x="684.9583333333333" style="color:#000000;cursor:default;font-size:11px;fill:#000000;width:68.58333333333333;text-overflow:ellipsis;" text-anchor="middle" transform="translate(0,0)" y="352" opacity="1"><tspan>2007</tspan></text><text x="753.5416666666666" style="color:#000000;cursor:default;font-size:11px;fill:#000000;width:68.58333333333333;text-overflow:ellipsis;" text-anchor="middle" transform="translate(0,0)" y="352" opacity="1"><tspan>2008</tspan></text><text x="822.125" style="color:#000000;cursor:default;font-size:11px;fill:#000000;width:68.58333333333333;text-overflow:ellipsis;" text-anchor="middle" transform="translate(0,0)" y="352" opacity="1"><tspan>2009</tspan></text><text x="890.7083333333333" style="color:#000000;cursor:default;font-size:11px;fill:#000000;width:68.58333333333333;text-overflow:ellipsis;" text-anchor="middle" transform="translate(0,0)" y="352" opacity="1"><tspan>2010</tspan></text></g><g class="highcharts-axis-labels highcharts-xaxis-labels" ><text x="136.29166666666666" style="color:#ba0f27;cursor:default;font-size:11px;fill:#ba0f27;width:68.58333333333333;text-overflow:ellipsis;" text-anchor="middle" transform="translate(0,0)" y="121" opacity="1"><tspan>1999</tspan></text><text x="204.875" style="color:#ba0f27;cursor:default;font-size:11px;fill:#ba0f27;width:68.58333333333333;text-overflow:ellipsis;" text-anchor="middle" transform="translate(0,0)" y="121" opacity="1"><tspan>2000</tspan></text><text x="273.4583333333333" style="color:#ba0f27;cursor:default;font-size:11px;fill:#ba0f27;width:68.58333333333333;text-overflow:ellipsis;" text-anchor="middle" transform="translate(0,0)" y="121" opacity="1"><tspan>2001</tspan></text><text x="342.04166666666663" style="color:#ba0f27;cursor:default;font-size:11px;fill:#ba0f27;width:68.58333333333333;text-overflow:ellipsis;" text-anchor="middle" transform="translate(0,0)" y="121" opacity="1"><tspan>2002</tspan></text><text x="410.625" style="color:#ba0f27;cursor:default;font-size:11px;fill:#ba0f27;width:68.58333333333333;text-overflow:ellipsis;" text-anchor="middle" transform="translate(0,0)" y="121" opacity="1"><tspan>2003</tspan></text><text x="479.2083333333333" style="color:#ba0f27;cursor:default;font-size:11px;fill:#ba0f27;width:68.58333333333333;text-overflow:ellipsis;" text-anchor="middle" transform="translate(0,0)" y="121" opacity="1"><tspan>2004</tspan></text><text x="547.7916666666666" style="color:#ba0f27;cursor:default;font-size:11px;fill:#ba0f27;width:68.58333333333333;text-overflow:ellipsis;" text-anchor="middle" transform="translate(0,0)" y="121" opacity="1"><tspan>2005</tspan></text><text x="616.375" style="color:#ba0f27;cursor:default;font-size:11px;fill:#ba0f27;width:68.58333333333333;text-overflow:ellipsis;" text-anchor="middle" transform="translate(0,0)" y="121" opacity="1"><tspan>2006</tspan></text><text x="684.9583333333333" style="color:#ba0f27;cursor:default;font-size:11px;fill:#ba0f27;width:68.58333333333333;text-overflow:ellipsis;" text-anchor="middle" transform="translate(0,0)" y="121" opacity="1"><tspan>2007</tspan></text><text x="753.5416666666666" style="color:#ba0f27;cursor:default;font-size:11px;fill:#ba0f27;width:68.58333333333333;text-overflow:ellipsis;" text-anchor="middle" transform="translate(0,0)" y="121" opacity="1"><tspan>2008</tspan></text><text x="822.125" style="color:#ba0f27;cursor:default;font-size:11px;fill:#ba0f27;width:68.58333333333333;text-overflow:ellipsis;" text-anchor="middle" transform="translate(0,0)" y="121" opacity="1"><tspan>2009</tspan></text><text x="890.7083333333333" style="color:#ba0f27;cursor:default;font-size:11px;fill:#ba0f27;width:68.58333333333333;text-overflow:ellipsis;" text-anchor="middle" transform="translate(0,0)" y="121" opacity="1"><tspan>2010</tspan></text></g><g class="highcharts-axis-labels highcharts-yaxis-labels" ><text x="940" style="color:#000000;cursor:default;font-size:11px;fill:#000000;width:333px;text-overflow:clip;" text-anchor="start" transform="translate(0,0)" y="337" opacity="1"><tspan>7  per 1,000</tspan></text><text x="940" style="color:#000000;cursor:default;font-size:11px;fill:#000000;width:333px;text-overflow:clip;" text-anchor="start" transform="translate(0,0)" y="287" opacity="1"><tspan>8  per 1,000</tspan></text><text x="940" style="color:#000000;cursor:default;font-size:11px;fill:#000000;width:333px;text-overflow:clip;" text-anchor="start" transform="translate(0,0)" y="238" opacity="1"><tspan>9  per 1,000</tspan></text><text x="940" style="color:#000000;cursor:default;font-size:11px;fill:#000000;width:333px;text-overflow:clip;" text-anchor="start" transform="translate(0,0)" y="189" opacity="1"><tspan>10  per 1,000</tspan></text><text x="940" style="color:#000000;cursor:default;font-size:11px;fill:#000000;width:333px;text-overflow:clip;" text-anchor="start" transform="translate(0,0)" y="140" opacity="1"><tspan>11  per 1,000</tspan></text></g><g class="highcharts-axis-labels highcharts-yaxis-labels" ><text x="87" style="color:#ba0f27;cursor:default;font-size:11px;fill:#ba0f27;width:333px;text-overflow:clip;" text-anchor="end" transform="translate(0,0)" y="337" opacity="1"><tspan>0 deaths</tspan></text><text x="87" style="color:#ba0f27;cursor:default;font-size:11px;fill:#ba0f27;width:333px;text-overflow:clip;" text-anchor="end" transform="translate(0,0)" y="238" opacity="1"><tspan>10 deaths</tspan></text><text x="87" style="color:#ba0f27;cursor:default;font-size:11px;fill:#ba0f27;width:333px;text-overflow:clip;" text-anchor="end" transform="translate(0,0)" y="140" opacity="1"><tspan>20 deaths</tspan></text></g><g class="highcharts-tooltip"  style="cursor:default;padding:0;white-space:nowrap;" transform="translate(0,-9999)"><path fill="none" d="M 3 0 L 13 0 C 16 0 16 0 16 3 L 16 13 C 16 16 16 16 13 16 L 3 16 C 0 16 0 16 0 13 L 0 3 C 0 0 0 0 3 0"  stroke="black" stroke-opacity="0.049999999999999996" stroke-width="5" transform="translate(1, 1)"></path><path fill="none" d="M 3 0 L 13 0 C 16 0 16 0 16 3 L 16 13 C 16 16 16 16 13 16 L 3 16 C 0 16 0 16 0 13 L 0 3 C 0 0 0 0 3 0"  stroke="black" stroke-opacity="0.09999999999999999" stroke-width="3" transform="translate(1, 1)"></path><path fill="none" d="M 3 0 L 13 0 C 16 0 16 0 16 3 L 16 13 C 16 16 16 16 13 16 L 3 16 C 0 16 0 16 0 13 L 0 3 C 0 0 0 0 3 0"  stroke="black" stroke-opacity="0.15" stroke-width="1" transform="translate(1, 1)"></path><path fill="rgb(249, 249, 249)" fill-opacity=" .85" d="M 3 0 L 13 0 C 16 0 16 0 16 3 L 16 13 C 16 16 16 16 13 16 L 3 16 C 0 16 0 16 0 13 L 0 3 C 0 0 0 0 3 0"></path><text x="8"  style="font-size:12px;color:#333333;fill:#333333;" transform="translate(0,20)"></text></g><text x="1030" text-anchor="end"  style="cursor:pointer;color:#909090;font-size:9px;fill:#909090;" y="405">tylervigen.com</text></svg>