<?xml version="1.0" standalone="no"?><!DOCTYPE svg PUBLIC "-//W3C//DTD SVG 1.1//EN" "http://www.w3.org/Graphics/SVG/1.1/DTD/svg11.dtd"><svg xmlns:xlink="http://www.w3.org/1999/xlink" version="1.1" style="font-family:open sans;font-size:12px;" xmlns="http://www.w3.org/2000/svg" width="1040" height="410"><desc>Created with Highcharts 4.1.5</desc><defs><clipPath id="highcharts-70"><rect x="0" y="0" width="839" height="197"></rect></clipPath></defs><rect x="0" y="0" width="1040" height="410" strokeWidth="0" fill="#FFFFFF" class=" highcharts-background"></rect><g class="highcharts-grid" ></g><g class="highcharts-grid" ></g><g class="highcharts-grid" ><path fill="none" d="M 99 333.5 L 938 333.5" stroke="#D8D8D8" stroke-width="1"  opacity="1"></path><path fill="none" d="M 99 267.5 L 938 267.5" stroke="#D8D8D8" stroke-width="1"  opacity="1"></path><path fill="none" d="M 99 202.5 L 938 202.5" stroke="#D8D8D8" stroke-width="1"  opacity="1"></path><path fill="none" d="M 99 135.5 L 938 135.5" stroke="#D8D8D8" stroke-width="1"  opacity="1"></path></g><g class="highcharts-grid" ></g><g class="highcharts-axis" ><path fill="none" d="M 174.5 333 L 174.5 343" stroke="#C0D0E0" stroke-width="1" opacity="1"></path><path fill="none" d="M 251.5 333 L 251.5 343" stroke="#C0D0E0" stroke-width="1" opacity="1"></path><path fill="none" d="M 327.5 333 L 327.5 343" stroke="#C0D0E0" stroke-width="1" opacity="1"></path><path fill="none" d="M 403.5 333 L 403.5 343" stroke="#C0D0E0" stroke-width="1" opacity="1"></path><path fill="none" d="M 479.5 333 L 479.5 343" stroke="#C0D0E0" stroke-width="1" opacity="1"></path><path fill="none" d="M 556.5 333 L 556.5 343" stroke="#C0D0E0" stroke-width="1" opacity="1"></path><path fill="none" d="M 632.5 333 L 632.5 343" stroke="#C0D0E0" stroke-width="1" opacity="1"></path><path fill="none" d="M 708.5 333 L 708.5 343" stroke="#C0D0E0" stroke-width="1" opacity="1"></path><path fill="none" d="M 784.5 333 L 784.5 343" stroke="#C0D0E0" stroke-width="1" opacity="1"></path><path fill="none" d="M 861.5 333 L 861.5 343" stroke="#C0D0E0" stroke-width="1" opacity="1"></path><path fill="none" d="M 937.5 333 L 937.5 343" stroke="#C0D0E0" stroke-width="1" opacity="1"></path><path fill="none" d="M 98.5 333 L 98.5 343" stroke="#C0D0E0" stroke-width="1" opacity="1"></path><path fill="none" d="M 99 333.5 L 938 333.5" stroke="#C0D0E0" stroke-width="1"  visibility="visible"></path></g><g class="highcharts-axis" ><path fill="none" d="M 174.5 136 L 174.5 126" stroke="#C0D0E0" stroke-width="1" opacity="1"></path><path fill="none" d="M 251.5 136 L 251.5 126" stroke="#C0D0E0" stroke-width="1" opacity="1"></path><path fill="none" d="M 327.5 136 L 327.5 126" stroke="#C0D0E0" stroke-width="1" opacity="1"></path><path fill="none" d="M 403.5 136 L 403.5 126" stroke="#C0D0E0" stroke-width="1" opacity="1"></path><path fill="none" d="M 479.5 136 L 479.5 126" stroke="#C0D0E0" stroke-width="1" opacity="1"></path><path fill="none" d="M 556.5 136 L 556.5 126" stroke="#C0D0E0" stroke-width="1" opacity="1"></path><path fill="none" d="M 632.5 136 L 632.5 126" stroke="#C0D0E0" stroke-width="1" opacity="1"></path><path fill="none" d="M 708.5 136 L 708.5 126" stroke="#C0D0E0" stroke-width="1" opacity="1"></path><path fill="none" d="M 784.5 136 L 784.5 126" stroke="#C0D0E0" stroke-width="1" opacity="1"></path><path fill="none" d="M 861.5 136 L 861.5 126" stroke="#C0D0E0" stroke-width="1" opacity="1"></path><path fill="none" d="M 937.5 136 L 937.5 126" stroke="#C0D0E0" stroke-width="1" opacity="1"></path><path fill="none" d="M 98.5 136 L 98.5 126" stroke="#C0D0E0" stroke-width="1" opacity="1"></path><path fill="none" d="M 99 135.5 L 938 135.5" stroke="#C0D0E0" stroke-width="1"  visibility="visible"></path></g><g class="highcharts-axis" ><text x="1013.359375"  text-anchor="middle" transform="translate(0,0) rotate(90 1013.359375 234.5)" class=" highcharts-yaxis-title" style="color:#000000;fill:#000000;" visibility="visible" y="234.5"><tspan>Number of people killed by venomous spiders</tspan></text></g><g class="highcharts-axis" ><text x="25.921875"  text-anchor="middle" transform="translate(0,0) rotate(270 25.921875 234.5)" class=" highcharts-yaxis-title" style="color:#ba0f27;fill:#ba0f27;" visibility="visible" y="234.5"><tspan>Spelling Bee winning word</tspan></text></g><g class="highcharts-series-group" ><g class="highcharts-series" visibility="visible"  transform="translate(99,136) scale(1 1)" clip-path="url(#highcharts-70)"><path fill="none" d="M 38.13636363636363 118.2 C 38.13636363636363 118.2 83.9 131.33333333333334 114.4090909090909 131.33333333333334 C 144.9181818181818 131.33333333333334 160.17272727272726 131.33333333333334 190.68181818181816 131.33333333333334 C 221.1909090909091 131.33333333333334 236.4454545454545 65.66666666666669 266.95454545454544 65.66666666666669 C 297.4636363636363 65.66666666666669 312.7181818181818 91.93333333333334 343.2272727272727 91.93333333333334 C 373.7363636363636 91.93333333333334 388.990909090909 13.133333333333326 419.49999999999994 13.133333333333326 C 450.0090909090908 13.133333333333326 465.2636363636363 39.4 495.77272727272725 65.66666666666669 C 526.2818181818182 91.93333333333334 541.5363636363636 144.46666666666667 572.0454545454545 144.46666666666667 C 602.5545454545454 144.46666666666667 617.8090909090909 91.93333333333334 648.3181818181818 91.93333333333334 C 678.8272727272727 91.93333333333334 694.0818181818181 131.33333333333334 724.590909090909 131.33333333333334 C 755.0999999999999 131.33333333333334 800.8636363636363 118.2 800.8636363636363 118.2" stroke="#000000" stroke-width="2"  stroke-linejoin="round" stroke-linecap="round"></path></g><g class="highcharts-markers" visibility="visible"  transform="translate(99,136) scale(1 1)" clip-path="none"><path fill="#000000" d="M 800 114.2 C 805.328 114.2 805.328 122.2 800 122.2 C 794.672 122.2 794.672 114.2 800 114.2 Z"></path><path fill="#000000" d="M 724 127.33333333333334 C 729.328 127.33333333333334 729.328 135.33333333333334 724 135.33333333333334 C 718.672 135.33333333333334 718.672 127.33333333333334 724 127.33333333333334 Z"></path><path fill="#000000" d="M 648 87.93333333333334 C 653.328 87.93333333333334 653.328 95.93333333333334 648 95.93333333333334 C 642.672 95.93333333333334 642.672 87.93333333333334 648 87.93333333333334 Z"></path><path fill="#000000" d="M 572 140.46666666666667 C 577.328 140.46666666666667 577.328 148.46666666666667 572 148.46666666666667 C 566.672 148.46666666666667 566.672 140.46666666666667 572 140.46666666666667 Z"></path><path fill="#000000" d="M 495 61.666666666666686 C 500.328 61.666666666666686 500.328 69.66666666666669 495 69.66666666666669 C 489.672 69.66666666666669 489.672 61.666666666666686 495 61.666666666666686 Z"></path><path fill="#000000" d="M 419 9.133333333333326 C 424.328 9.133333333333326 424.328 17.133333333333326 419 17.133333333333326 C 413.672 17.133333333333326 413.672 9.133333333333326 419 9.133333333333326 Z"></path><path fill="#000000" d="M 343 87.93333333333334 C 348.328 87.93333333333334 348.328 95.93333333333334 343 95.93333333333334 C 337.672 95.93333333333334 337.672 87.93333333333334 343 87.93333333333334 Z"></path><path fill="#000000" d="M 266 61.666666666666686 C 271.328 61.666666666666686 271.328 69.66666666666669 266 69.66666666666669 C 260.672 69.66666666666669 260.672 61.666666666666686 266 61.666666666666686 Z"></path><path fill="#000000" d="M 190 127.33333333333334 C 195.328 127.33333333333334 195.328 135.33333333333334 190 135.33333333333334 C 184.672 135.33333333333334 184.672 127.33333333333334 190 127.33333333333334 Z"></path><path fill="#000000" d="M 114 127.33333333333334 C 119.328 127.33333333333334 119.328 135.33333333333334 114 135.33333333333334 C 108.672 135.33333333333334 108.672 127.33333333333334 114 127.33333333333334 Z"></path><path fill="#000000" d="M 38 114.2 C 43.328 114.2 43.328 122.2 38 122.2 C 32.672 122.2 32.672 114.2 38 114.2 Z"></path></g><g class="highcharts-series" visibility="visible"  transform="translate(99,136) scale(1 1)" clip-path="url(#highcharts-70)"><path fill="none" d="M 38.13636363636363 118.2 C 38.13636363636363 118.2 83.9 137.9 114.4090909090909 137.9 C 144.9181818181818 137.9 160.17272727272726 94.56 190.68181818181816 78.80000000000001 C 221.1909090909091 63.04 236.4454545454545 59.099999999999994 266.95454545454544 59.099999999999994 C 297.4636363636363 59.099999999999994 312.7181818181818 78.80000000000001 343.2272727272727 78.80000000000001 C 373.7363636363636 78.80000000000001 388.990909090909 39.400000000000006 419.49999999999994 39.400000000000006 C 450.0090909090908 39.400000000000006 465.2636363636363 43.33999999999998 495.77272727272725 59.099999999999994 C 526.2818181818182 74.85999999999997 541.5363636363636 118.2 572.0454545454545 118.2 C 602.5545454545454 118.2 617.8090909090909 118.2 648.3181818181818 118.2 C 678.8272727272727 118.2 694.0818181818181 157.6 724.590909090909 157.6 C 755.0999999999999 157.6 800.8636363636363 118.2 800.8636363636363 118.2" stroke="#ba0f27" stroke-width="2"  stroke-linejoin="round" stroke-linecap="round"></path></g><g class="highcharts-markers" visibility="visible"  transform="translate(99,136) scale(1 1)" clip-path="none"><path fill="#ba0f27" d="M 800 114.2 L 804 118.2 800 122.2 796 118.2 Z"></path><path fill="#ba0f27" d="M 724 153.6 L 728 157.6 724 161.6 720 157.6 Z"></path><path fill="#ba0f27" d="M 648 114.2 L 652 118.2 648 122.2 644 118.2 Z"></path><path fill="#ba0f27" d="M 572 114.2 L 576 118.2 572 122.2 568 118.2 Z"></path><path fill="#ba0f27" d="M 495 55.099999999999994 L 499 59.099999999999994 495 63.099999999999994 491 59.099999999999994 Z"></path><path fill="#ba0f27" d="M 419 35.400000000000006 L 423 39.400000000000006 419 43.400000000000006 415 39.400000000000006 Z"></path><path fill="#ba0f27" d="M 343 74.80000000000001 L 347 78.80000000000001 343 82.80000000000001 339 78.80000000000001 Z"></path><path fill="#ba0f27" d="M 266 55.099999999999994 L 270 59.099999999999994 266 63.099999999999994 262 59.099999999999994 Z"></path><path fill="#ba0f27" d="M 190 74.80000000000001 L 194 78.80000000000001 190 82.80000000000001 186 78.80000000000001 Z"></path><path fill="#ba0f27" d="M 114 133.9 L 118 137.9 114 141.9 110 137.9 Z"></path><path fill="#ba0f27" d="M 38 114.2 L 42 118.2 38 122.2 34 118.2 Z"></path></g></g><text x="520" text-anchor="middle" class="highcharts-title"  style="color:#777;font-size:18px;fill:#777;width:976px;" y="24"><tspan style="fill:#ba0f27;font-size:24px;font-weight:bold;font-family: 'lora'">Letters in Winning Word of Scripps National Spelling Bee</tspan><tspan style="font-family: 'lora'" x="520" dy="21"> correlates with </tspan><tspan style="fill:#000000;font-size:24px;font-weight:bold;font-family: 'lora'" x="520" dy="29">Number of people killed by venomous spiders</tspan></text><g class="highcharts-legend"  transform="translate(272,368)"><g ><g><g class="highcharts-legend-item"  transform="translate(8,3)"><path fill="none" d="M 0 11 L 16 11" stroke="#000000" stroke-width="2"></path><path fill="#000000" d="M 8 7 C 13.328 7 13.328 15 8 15 C 2.6719999999999997 15 2.6719999999999997 7 8 7 Z"></path><text x="21" style="color:#333333;font-size:12px;font-weight:bold;cursor:pointer;fill:#333333;" text-anchor="start"  y="15"><tspan>Number of people killed by venomous spiders</tspan></text></g><g class="highcharts-legend-item"  transform="translate(314.71875,3)"><path fill="none" d="M 0 11 L 16 11" stroke="#ba0f27" stroke-width="2"></path><path fill="#ba0f27" d="M 8 7 L 12 11 8 15 4 11 Z"></path><text x="21" y="15" style="color:#333333;font-size:12px;font-weight:bold;cursor:pointer;fill:#333333;" text-anchor="start" ><tspan>Spelling Bee winning word</tspan></text></g></g></g></g><g class="highcharts-axis-labels highcharts-xaxis-labels" ><text x="137.13636363636363" style="color:#000000;cursor:default;font-size:11px;fill:#000000;width:76.27272727272727;text-overflow:ellipsis;" text-anchor="middle" transform="translate(0,0)" y="352" opacity="1"><tspan>1999</tspan></text><text x="213.4090909090909" style="color:#000000;cursor:default;font-size:11px;fill:#000000;width:76.27272727272727;text-overflow:ellipsis;" text-anchor="middle" transform="translate(0,0)" y="352" opacity="1"><tspan>2000</tspan></text><text x="289.68181818181813" style="color:#000000;cursor:default;font-size:11px;fill:#000000;width:76.27272727272727;text-overflow:ellipsis;" text-anchor="middle" transform="translate(0,0)" y="352" opacity="1"><tspan>2001</tspan></text><text x="365.95454545454544" style="color:#000000;cursor:default;font-size:11px;fill:#000000;width:76.27272727272727;text-overflow:ellipsis;" text-anchor="middle" transform="translate(0,0)" y="352" opacity="1"><tspan>2002</tspan></text><text x="442.2272727272727" style="color:#000000;cursor:default;font-size:11px;fill:#000000;width:76.27272727272727;text-overflow:ellipsis;" text-anchor="middle" transform="translate(0,0)" y="352" opacity="1"><tspan>2003</tspan></text><text x="518.4999999999999" style="color:#000000;cursor:default;font-size:11px;fill:#000000;width:76.27272727272727;text-overflow:ellipsis;" text-anchor="middle" transform="translate(0,0)" y="352" opacity="1"><tspan>2004</tspan></text><text x="594.7727272727273" style="color:#000000;cursor:default;font-size:11px;fill:#000000;width:76.27272727272727;text-overflow:ellipsis;" text-anchor="middle" transform="translate(0,0)" y="352" opacity="1"><tspan>2005</tspan></text><text x="671.0454545454545" style="color:#000000;cursor:default;font-size:11px;fill:#000000;width:76.27272727272727;text-overflow:ellipsis;" text-anchor="middle" transform="translate(0,0)" y="352" opacity="1"><tspan>2006</tspan></text><text x="747.3181818181818" style="color:#000000;cursor:default;font-size:11px;fill:#000000;width:76.27272727272727;text-overflow:ellipsis;" text-anchor="middle" transform="translate(0,0)" y="352" opacity="1"><tspan>2007</tspan></text><text x="823.590909090909" style="color:#000000;cursor:default;font-size:11px;fill:#000000;width:76.27272727272727;text-overflow:ellipsis;" text-anchor="middle" transform="translate(0,0)" y="352" opacity="1"><tspan>2008</tspan></text><text x="899.8636363636363" style="color:#000000;cursor:default;font-size:11px;fill:#000000;width:76.27272727272727;text-overflow:ellipsis;" text-anchor="middle" transform="translate(0,0)" y="352" opacity="1"><tspan>2009</tspan></text></g><g class="highcharts-axis-labels highcharts-xaxis-labels" ><text x="137.13636363636363" style="color:#ba0f27;cursor:default;font-size:11px;fill:#ba0f27;width:76.27272727272727;text-overflow:ellipsis;" text-anchor="middle" transform="translate(0,0)" y="121" opacity="1"><tspan>1999</tspan></text><text x="213.4090909090909" style="color:#ba0f27;cursor:default;font-size:11px;fill:#ba0f27;width:76.27272727272727;text-overflow:ellipsis;" text-anchor="middle" transform="translate(0,0)" y="121" opacity="1"><tspan>2000</tspan></text><text x="289.68181818181813" style="color:#ba0f27;cursor:default;font-size:11px;fill:#ba0f27;width:76.27272727272727;text-overflow:ellipsis;" text-anchor="middle" transform="translate(0,0)" y="121" opacity="1"><tspan>2001</tspan></text><text x="365.95454545454544" style="color:#ba0f27;cursor:default;font-size:11px;fill:#ba0f27;width:76.27272727272727;text-overflow:ellipsis;" text-anchor="middle" transform="translate(0,0)" y="121" opacity="1"><tspan>2002</tspan></text><text x="442.2272727272727" style="color:#ba0f27;cursor:default;font-size:11px;fill:#ba0f27;width:76.27272727272727;text-overflow:ellipsis;" text-anchor="middle" transform="translate(0,0)" y="121" opacity="1"><tspan>2003</tspan></text><text x="518.4999999999999" style="color:#ba0f27;cursor:default;font-size:11px;fill:#ba0f27;width:76.27272727272727;text-overflow:ellipsis;" text-anchor="middle" transform="translate(0,0)" y="121" opacity="1"><tspan>2004</tspan></text><text x="594.7727272727273" style="color:#ba0f27;cursor:default;font-size:11px;fill:#ba0f27;width:76.27272727272727;text-overflow:ellipsis;" text-anchor="middle" transform="translate(0,0)" y="121" opacity="1"><tspan>2005</tspan></text><text x="671.0454545454545" style="color:#ba0f27;cursor:default;font-size:11px;fill:#ba0f27;width:76.27272727272727;text-overflow:ellipsis;" text-anchor="middle" transform="translate(0,0)" y="121" opacity="1"><tspan>2006</tspan></text><text x="747.3181818181818" style="color:#ba0f27;cursor:default;font-size:11px;fill:#ba0f27;width:76.27272727272727;text-overflow:ellipsis;" text-anchor="middle" transform="translate(0,0)" y="121" opacity="1"><tspan>2007</tspan></text><text x="823.590909090909" style="color:#ba0f27;cursor:default;font-size:11px;fill:#ba0f27;width:76.27272727272727;text-overflow:ellipsis;" text-anchor="middle" transform="translate(0,0)" y="121" opacity="1"><tspan>2008</tspan></text><text x="899.8636363636363" style="color:#ba0f27;cursor:default;font-size:11px;fill:#ba0f27;width:76.27272727272727;text-overflow:ellipsis;" text-anchor="middle" transform="translate(0,0)" y="121" opacity="1"><tspan>2009</tspan></text></g><g class="highcharts-axis-labels highcharts-yaxis-labels" ><text x="953" style="color:#000000;cursor:default;font-size:11px;fill:#000000;width:333px;text-overflow:clip;" text-anchor="start" transform="translate(0,0)" y="337" opacity="1"><tspan>0 deaths</tspan></text><text x="953" style="color:#000000;cursor:default;font-size:11px;fill:#000000;width:333px;text-overflow:clip;" text-anchor="start" transform="translate(0,0)" y="271" opacity="1"><tspan>5 deaths</tspan></text><text x="953" style="color:#000000;cursor:default;font-size:11px;fill:#000000;width:333px;text-overflow:clip;" text-anchor="start" transform="translate(0,0)" y="205" opacity="1"><tspan>10 deaths</tspan></text><text x="953" style="color:#000000;cursor:default;font-size:11px;fill:#000000;width:333px;text-overflow:clip;" text-anchor="start" transform="translate(0,0)" y="140" opacity="1"><tspan>15 deaths</tspan></text></g><g class="highcharts-axis-labels highcharts-yaxis-labels" ><text x="84" style="color:#ba0f27;cursor:default;font-size:11px;fill:#ba0f27;width:333px;text-overflow:clip;" text-anchor="end" transform="translate(0,0)" y="337" opacity="1"><tspan>5 letters</tspan></text><text x="84" style="color:#ba0f27;cursor:default;font-size:11px;fill:#ba0f27;width:333px;text-overflow:clip;" text-anchor="end" transform="translate(0,0)" y="238" opacity="1"><tspan>10 letters</tspan></text><text x="84" style="color:#ba0f27;cursor:default;font-size:11px;fill:#ba0f27;width:333px;text-overflow:clip;" text-anchor="end" transform="translate(0,0)" y="140" opacity="1"><tspan>15 letters</tspan></text></g><g class="highcharts-tooltip"  style="cursor:default;padding:0;white-space:nowrap;" transform="translate(0,-9999)"><path fill="none" d="M 3 0 L 13 0 C 16 0 16 0 16 3 L 16 13 C 16 16 16 16 13 16 L 3 16 C 0 16 0 16 0 13 L 0 3 C 0 0 0 0 3 0"  stroke="black" stroke-opacity="0.049999999999999996" stroke-width="5" transform="translate(1, 1)"></path><path fill="none" d="M 3 0 L 13 0 C 16 0 16 0 16 3 L 16 13 C 16 16 16 16 13 16 L 3 16 C 0 16 0 16 0 13 L 0 3 C 0 0 0 0 3 0"  stroke="black" stroke-opacity="0.09999999999999999" stroke-width="3" transform="translate(1, 1)"></path><path fill="none" d="M 3 0 L 13 0 C 16 0 16 0 16 3 L 16 13 C 16 16 16 16 13 16 L 3 16 C 0 16 0 16 0 13 L 0 3 C 0 0 0 0 3 0"  stroke="black" stroke-opacity="0.15" stroke-width="1" transform="translate(1, 1)"></path><path fill="rgb(249, 249, 249)" fill-opacity=" .85" d="M 3 0 L 13 0 C 16 0 16 0 16 3 L 16 13 C 16 16 16 16 13 16 L 3 16 C 0 16 0 16 0 13 L 0 3 C 0 0 0 0 3 0"></path><text x="8"  style="font-size:12px;color:#333333;fill:#333333;" transform="translate(0,20)"></text></g><text x="1030" text-anchor="end"  style="cursor:pointer;color:#909090;font-size:9px;fill:#909090;" y="405">tylervigen.com</text></svg>